<?xml version="1.0" standalone="no"?><!DOCTYPE svg PUBLIC "-//W3C//DTD SVG 1.1//EN" "http://www.w3.org/Graphics/SVG/1.1/DTD/svg11.dtd"><svg t="1679038391941" class="icon" viewBox="0 0 1024 1024" version="1.1" xmlns="http://www.w3.org/2000/svg" p-id="2806" xmlns:xlink="http://www.w3.org/1999/xlink" width="200" height="200"><path d="M653.235376 611.092095H370.948946a47.275297 47.275297 0 0 0 0 94.635928h282.28643a47.275297 47.275297 0 0 0 0-94.635928z m-213.336177-195.671943h144.385925a47.275297 47.275297 0 1 0 0-94.550594H439.72853a47.275297 47.275297 0 0 0 0 94.550594zM819.893599 0.011947H217.517567a257.710103 257.710103 0 0 0-56.235417 5.632075A201.816024 201.816024 0 0 0 1.280017 203.022654C-1.109348 401.083961 0.682676 598.462593 0.682676 796.182562a287.23583 287.23583 0 0 0 6.144082 66.560888 203.608048 203.608048 0 0 0 197.805304 160.258137c102.401365 1.962693 204.802731 0.426672 307.204096 0.426672h296.537287a244.909932 244.909932 0 0 0 56.235416-5.888078 202.072028 202.072028 0 0 0 159.319458-199.341325v-614.408192A202.925372 202.925372 0 0 0 819.893599 0.011947z m90.881211 497.073294V663.060787a248.749983 248.749983 0 0 1-248.920652 248.835318H362.24483A248.749983 248.749983 0 0 1 113.324178 663.060787V361.062094a248.835318 248.835318 0 0 1 248.920652-248.920652h162.135495a248.835318 248.835318 0 0 1 244.312591 248.920652v24.23499a27.307031 27.307031 0 0 0 27.136362 27.307031h42.155228a72.619635 72.619635 0 0 1 72.534301 72.619635v12.03216z" fill="#6C849C" p-id="2807"></path></svg>