<?xml version="1.0" standalone="no"?><!DOCTYPE svg PUBLIC "-//W3C//DTD SVG 1.1//EN" "http://www.w3.org/Graphics/SVG/1.1/DTD/svg11.dtd"><svg t="1679542601490" class="icon" viewBox="0 0 1024 1024" version="1.1" xmlns="http://www.w3.org/2000/svg" p-id="2776" xmlns:xlink="http://www.w3.org/1999/xlink" width="200" height="200"><path d="M167.84 293.266l157.116 103.574 156.592-216.764c7.02-9.73 18.362-15.504 30.45-15.504 12.086 0 23.43 5.774 30.45 15.504L699.04 396.84l157.116-103.574a37.764 37.764 0 0 1 40.296-0.724c12.428 7.546 19.286 21.544 17.574 35.864l-61.462 516.646c-2.22 18.624-18.18 32.662-37.146 32.662h-606.84c-18.966 0-34.928-14.038-37.146-32.662L109.97 328.37c-1.696-14.314 5.17-28.3 17.592-35.834a37.764 37.764 0 0 1 40.278 0.73z" fill="#FECB1E" p-id="2777"></path><path d="M512 713.142c50.494 0 91.428-40.934 91.428-91.428S562.494 530.286 512 530.286s-91.428 40.934-91.428 91.428 40.934 91.428 91.428 91.428z" fill="#FFFFFF" p-id="2778"></path></svg>