<svg xmlns="http://www.w3.org/2000/svg" xmlns:xlink="http://www.w3.org/1999/xlink" width="65.429" height="65.429" viewBox="0 0 65.429 65.429"><defs><style>.a{fill:url(#a);}.b{fill:#fff;}</style><radialGradient id="a" cx="0.5" cy="1" r="0.991" gradientTransform="matrix(0.999, 0.033, -0.033, 0.999, 0.033, -0.016)" gradientUnits="objectBoundingBox"><stop offset="0" stop-color="#ffaa01"/><stop offset="1" stop-color="#ff3b3b"/></radialGradient></defs><path class="a" d="M16.941,0H48.488A16.941,16.941,0,0,1,65.429,16.941V48.488A16.941,16.941,0,0,1,48.488,65.429H16.941A16.941,16.941,0,0,1,0,48.488V16.941A16.941,16.941,0,0,1,16.941,0Z"/><g transform="translate(15.882 16.047)"><path class="b" d="M134.72,99.329a9.4,9.4,0,1,0,9.393-9A9.2,9.2,0,0,0,134.72,99.329ZM127.285,121.816ZM127.285,121.759ZM127.285,121.745Zm33.657.114Zm0-.021ZM127.285,121.859Zm25.354-11.613-.771-.007a2.417,2.417,0,0,0-.919.22,12.56,12.56,0,0,1-1.179.568,15.083,15.083,0,0,1-11.246.014c-.571-.234-1.2-.583-1.2-.583a2.153,2.153,0,0,0-.919-.22l-.763.007a9.477,9.477,0,0,0-7.235,5.835,14.557,14.557,0,0,0-1.127,5.664,1.707,1.707,0,0,0,.927,1.372s5.241,3.227,15.894,3.227,15.894-3.227,15.894-3.227a1.825,1.825,0,0,0,.927-1.386,14.135,14.135,0,0,0-1.09-5.572,9.439,9.439,0,0,0-7.191-5.913Zm8.3,11.514Zm0,.05Z" transform="translate(-127.277 -90.324)"/></g><path class="b" d="M4.543,8.044a1.184,1.184,0,0,1-.659-.307C1.545,5.615,0,4.216,0,2.5A2.474,2.474,0,0,1,2.5,0,2.721,2.721,0,0,1,4.543.95,2.721,2.721,0,0,1,6.588,0a2.474,2.474,0,0,1,2.5,2.5c0,1.717-1.545,3.117-3.884,5.243A1.175,1.175,0,0,1,4.543,8.044Z" transform="matrix(0.875, 0.485, -0.485, 0.875, 46.127, 9.326)"/></svg>